<svg id="Layer_2" height="512" viewBox="0 0 24 24" width="512" xmlns="http://www.w3.org/2000/svg" xmlns:xlink="http://www.w3.org/1999/xlink" data-name="Layer 2"><linearGradient id="linear-gradient" gradientUnits="userSpaceOnUse" x1="-3.671" x2="26.008" y1="24.894" y2=".475"><stop offset="0" stop-color="#1ba0db"/><stop offset="1" stop-color="#57bf99"/></linearGradient><path d="m12 1a11 11 0 1 0 11 11 11.013 11.013 0 0 0 -11-11zm4.242 13.829a1 1 0 1 1 -1.414 1.414l-2.828-2.829-2.828 2.829a1 1 0 0 1 -1.414-1.414l2.828-2.829-2.828-2.829a1 1 0 1 1 1.414-1.414l2.828 2.829 2.828-2.829a1 1 0 1 1 1.414 1.414l-2.828 2.829z" fill="url(#linear-gradient)"/></svg>