<svg id="Layer_1" enable-background="new 0 0 72 72" height="512" viewBox="0 0 72 72" width="512" xmlns="http://www.w3.org/2000/svg"><g id="_x33_3"><g><g><path d="m50.8260422 29.4392586-4.3343544 2.599472-3.1981239-.8757839 1.2415504-5.0492783 4.2234955-1.612999s.6706734.7759171.7759857.809206c.1053123.027876 1.2914467 4.1293832 1.2914467 4.1293832z" fill="#f9c4c0"/></g></g><g><g><path d="m46.4406738 32.0247612-6.3366432 7.1560249-4.3241539 4.4945793c-1.0137291 1.3071861-2.5343819 1.9874802-4.0683441 1.967617-.1867237 0-.3801632-.0133514-.5668869-.0465698-.9337387-.1068153-1.8474483-.4871826-2.6210861-1.133934l-.1534252-.1266823-7.1563015-6.0024986 5.3155289-13.0786896 1.0671349.0732727c2.894516.1934395 5.3822479 2.1141624 6.3026314 4.862051l.6735802 2.014185 9.2582932-6.8967113z" fill="#f1f7ff"/></g></g><g><g><path d="m41.1963577 37.9472084-5.416481 5.728157c-1.0137291 1.3071861-2.5343819 1.9874802-4.0683441 1.967617-.1867237 0-.3801632-.0133514-.5668869-.0465698-.9337387-.1068153-1.8474483-.4871826-2.6210861-1.133934l-.1534252-.1266823c-.5135193-1.3605919-.6469173-2.8612175-.6135769-4.321785.0600414-2.1275139.4601917-4.2420006 1.1871395-6.2359962.6002655-1.6474953 1.5539913-3.3347225 3.1880131-3.9550991l-.5002079.6135368c.3801632.9137936.7603245 1.8275852 1.1871815 2.714674.4668274.9603615 1.0137253 1.9142075 1.834095 2.5945053.7736397.6467514 1.7473907 1.0004158 2.7277794 1.2537766 1.0471076.2667122 2.7286796.9344483 3.8157996.9477997z" fill="#c7dafa"/></g></g><g><g><g><g><g><path d="m20.3786297 67.034256-.2757912-12.9467735 10.533226.9679451v11.9788284z" fill="#363383"/></g></g></g><g><g><g><path d="m8.2052021 67.034256v-13.5701409l14.9539089-1.0042915-1.1773109 14.5744324z" fill="#5150ac"/></g></g></g><g><g><g><g><g><g><g><g><g><g><path d="m30.4585972 31.178688v20.5216904h-20.1699104v-22.4473228c0-2.3672237 1.9190149-4.2862396 4.2862396-4.2862396h9.6493244c3.4427566-.0000001 6.2343464 2.7766532 6.2343464 6.211872z" fill="#79affe"/></g></g></g><g><g><g><g><path d="m10.287 51.393h20.171v2.059h-20.171z" transform="matrix(-1 0 0 -1 40.746 104.845)"/></g></g></g></g><g><g><g><path d="m31.147131 32.6156845v10.6799164c-.2394543-.1347122-.471508-.3068314-.6885338-.5014305v-10.1784859c0-.2245598.1496925-.4116669.3442898-.4116669.1871051 0 .344244.1871071.344244.4116669z" fill="#f2cf77"/></g></g></g><g><g><g><g><path d="m21.7432766 53.434864v-1.9510956c0-.3596916.2927055-.651989.6523952-.651989h4.0114002c.3596897 0 .6523952.2922974.6523952.651989v1.9510956c0 .3596916-.2927055.6528015-.6523952.6528015h-4.0114002c-.3596897.0000001-.6523952-.2931098-.6523952-.6528015zm.6235714-1.9510955v1.9510956c0 .0162392.012991.0292282.0288239.0292282l4.0402241-.0292282-.0288239-1.9795151z" fill="#fff"/></g></g></g></g><g><g><g><g><path d="m29.7076664 10.4331055c0 2.1934156-1.3856182 3.9715309-3.0948639 3.9715309s-3.3643017-1.3520117-3.3643017-3.5454273 1.655056-4.3976336 3.3643017-4.3976336 3.0948639 1.7781143 3.0948639 3.97153z" fill="#333077"/></g></g></g><g><g><g><path d="m12.2343378 12.4776573c0 2.5857306 1.9538879 6.0943851 4.3068438 6.327158.0831242.0083237.1662464.0083237.2494183.0083237 2.0203667 0 3.6582565-2.4610481 4.1820602-4.8222761.0166435-.074851.033289-.1413794.0415611-.2161798.0914955-.4406815.1330566-.8813114.1330566-1.2970257 0-.6318941-.1080894-1.238821-.3159466-1.7875919-.4489536-1.2554646-1.3718777-2.2531385-2.5275249-2.7353811-.498888-.2161798-1.0476074-.332592-1.6129723-.332592-.0416126 0-.074852 0-.1164131.0083227-.9810791.0166445-1.8790359.3907976-2.602375 1.0060463-.0498838.0332394-.0997677.0831232-.1496506.1330061-.1995354.1746187-.3907986.3824759-.5653658.5986557-.6318931.8396996-1.0226917 1.9205969-1.0226917 3.1095341z" fill="#333077"/></g></g></g><g opacity=".15"><g><g><path d="m18.4284897 16.6680374c.7732239-.9644337 1.5547676-1.9455137 2.5441704-2.6771746.0831738-.0665283.1579723-.1247349.2411461-.1829405-.0665283-.0083227-.1330566-.0165939-.199585-.0332394-.4905148-.0582056-.9810791-.1579733-1.4549999-.2910299-.8979073 1.2305489-2.1201324 2.2615118-3.1261292 2.2615118-1.8374748 0-3.7248335-2.6106977-3.7248335-4.448122 0-.6485386.2245016-1.3053484.5986547-1.8790369l-.0498838-.0498829c-.6318932.8396997-1.0226917 1.9205971-1.0226917 3.1095343 0 2.5857306 1.9538879 6.0943851 4.3068438 6.327158"/></g></g></g><g><g><g><path d="m16.785 17.467h6.176v7.498h-6.176z" fill="#f9c4c0"/></g></g></g><g><g><g><path d="m22.9605122 16.1942005-.0000134 5.7580547s-2.7304325 1.4116611-6.1759338.8822784l.0000153-6.6403465z" fill="#fd9997"/></g></g></g><g><g><g><path d="m27.5924721 13.3343134v3.7165766c0 2.9889469-2.4200115 5.4018383-5.4018364 5.4018383s-5.4018383-2.4128914-5.4018383-5.4018383v-3.7165766c0-2.9817371 2.4200134-5.4018378 5.4018383-5.4018378 1.4909115 0 2.8449764.6050687 3.8172894 1.5845914.9795226.9723138 1.584547 2.3263778 1.584547 3.8172464z" fill="#f9c4c0"/></g></g></g><g><g><g><path d="m12.7082586 11.2970428c0 1.8374243 1.8873587 4.448122 3.7248335 4.448122 1.0059967 0 2.2282219-1.0309629 3.1261292-2.2615118.7649498-1.0226412 1.2970257-2.1949329 1.2970257-3.0263615 0-1.8374748-2.710413-2.8351994-4.539566-2.8351994-1.1806145 0-2.3363123.7649508-3.0097675 1.7959137-.3741533.5736887-.5986549 1.2304985-.5986549 1.879037z" fill="#333077"/></g></g></g><g><g><g><path d="m29.3401985 8.8828402c.484787 4.0497646-14.6648703 4.4643259-15.0311079.5669336-.4668798-4.9684019 5.1461802-4.9684019 8.8571348-4.9684019s5.8898888 2.0283685 6.1739731 4.4014683z" fill="#333077"/></g></g></g><g><g><g><path d="m22.4358101 15.1443615c0 .3828964-.2281475.6923971-.505125.6923971-.277029 0-.505127-.3095007-.505127-.6923971 0-.3828974.2280979-.6844406.505127-.6844406.2769775 0 .505125.3015432.505125.6844406z" fill="#373754"/></g></g><g><g><path d="m26.0205708 15.1443615c0 .3828964-.2280979.6923971-.505125.6923971-.2769794 0-.505127-.3095007-.505127-.6923971 0-.3828974.2281475-.6844406.505127-.6844406.277027 0 .505125.3015432.505125.6844406z" fill="#373754"/></g></g></g><g><g><g><path d="m21.7921295 18.1717377c-.0012722.0297813-.0088654.0577393-.0088654.0878181 0 1.1316605.9173756 2.049036 2.0489922 2.049036 1.1316605 0 2.0490379-.9173756 2.0490379-2.049036 0-.0300789-.0075951-.0580368-.0088673-.0878181z" fill="#fff"/></g></g></g></g><g opacity=".15"><g><g><path d="m12.7082586 11.2970428c0 1.8374243 1.8873587 4.448122 3.7248335 4.448122 1.0059967 0 2.2282219-1.0309629 3.1261292-2.2615118-2.1284542-.5819597-4.0656471-1.7792187-5.6038198-3.375598-.1995354-.1995344-.4157143-.4489527-.648488-.6900492-.3741533.5736887-.5986549 1.2304985-.5986549 1.879037z"/></g></g></g></g></g><g><g><g><g><path d="m26.5942783 47.4152374-2.4548359 2.9275551-3.1176509-2.9275551-.1849747-22.1628875h1.4045811z" fill="#353e57"/></g></g></g><g opacity=".08"><g><g><path d="m26.5913219 47.4156952-2.4488067 2.9242363-.381752-.3601227 2.3695907-2.830513-4.2926311-21.8935642h.4033355z"/></g></g></g></g><g><g><g><path d="m23.7155476 24.9663754-2.0883065 3.8702926-3.2014694-3.8702926z" fill="#353e57"/></g></g></g><g><g><g><path d="m15.581851 24.9649849 1.2027178-1.2054863 4.0285663 1.2054863-1.1235675 2.5137463z" fill="#5592ff"/></g></g></g><g><g><g><path d="m23.3062267 27.2443199-2.4930916-2.279335 2.1473027-.9153767.7385177.9153767z" fill="#5592ff"/></g></g></g></g></g></g></g><g><g><g><path d="m24.0750103 60.5759583c.0400143 2.6075325-2.0608349 4.7350464-4.6619339 4.7350464h-11.5181437l-.0133113-1.4937897-.2201033-30.826313-.0066757-1.1003914-.0066762-1.2537785c-.0266628-3.1279297 2.5077176-5.6690273 5.6356883-5.6690273h2.2942905l7.5831556 8.8103104.2000751 5.855629.2667923 7.8434334.4335308 12.7387047v.0198631z" fill="#f1f7ff"/></g></g></g><g><g><g><path d="m31.147131 64.9222794v-33.408165c0-3.6169834-2.9321442-6.5491276-6.5491276-6.5491276h-.8987503l-.5401192 8.8099632.9033928 26.4392624c.0869026 2.5433617 2.0498505 4.6261559 4.5836124 4.8634529z" fill="#f1f7ff"/></g></g></g><g><g><path d="m31.1446457 42.9398994c-.4401665.4334488-2.4677029 1.9895706-3.0479412 2.136116-.7869892.2067909-1.5539913.5070457-2.2676277.8936005-.7803135.4269333-1.5072994.9473343-2.2009087 1.5074615-.4001503.3201218-.7936649.653595-1.1871796.9870644-2.1341896 1.8139076-4.2817726 3.6414909-6.1158695 5.7624931-2.1542168 2.5010414-3.8416061 5.3687706-5.3488655 8.3032608-.3535004.6737823-.7736788 1.4273529-1.5139771 1.6139565-.5068846.1335144-1.0537834-.0465698-1.5206528-.2934189-.0199871-.0133514-.0400152-.0198631-.0600023-.0332184l-.2201033-30.826313c.6002665-.6001854 1.2605352-1.1336098 1.9874811-1.58041.4668694-.2803898.9737539-.5337505 1.5206528-.566967.8470325-.0599213 1.6340227.3933926 2.3476582.8535442 2.4743376 1.5875759 4.301322 4.2415485 6.4555807 6.2423801.9403725.8734093 2.3614044.9406242 3.388485 1.6941948.3935146.3002548.8070164.5738068 1.2405472.8069763 1.1204605.6070213 2.3542919.9671974 3.5214443 1.4807587.7402992.3269616 4.2017822-.1352805 3.0212784 1.0185204z" fill="#c7dafa"/></g></g><g><g><g><path d="m23.413 33.767h.395v26.455h-.395z" fill="#c7dafa" transform="matrix(.999 -.034 .034 .999 -1.591 .833)"/></g></g></g></g></g></g><g><g><path d="m68 61.16185v5.4498215c0 .5002136-.406868.9069595-.907074.9069595h-62.1858916c-.5002079 0-.9070344-.4067459-.9070344-.9069596v-5.4498214c0-.500206.4068265-.9072762.9070344-.9072762h62.1858916c.500206 0 .907074.4070702.907074.9072762z" fill="#387094"/></g></g><g><g><path d="m68 61.1627922v5.4488792c0 .5002136-.406868.9069595-.907074.9069595h-62.1858916c-.5002079.0000001-.9070344-.4067458-.9070344-.9069595v-.8134842h61.6590195c.500206 0 .9070358-.407074.9070358-.90728v-4.6350708h.5268707c.500206.0000001.907074.406746.907074.9069558z" fill="#315a79"/></g></g><g><g><path d="m31.7115326 36.7326965v8.9102859c-.1867237 0-.3801632-.0133514-.5668869-.0465698v-8.8637161z" fill="#c7dafa"/></g></g><g><g><path d="m14.7745342 27.8787651 6.0386009 9.9818726 16.5845127-5.1949348 2.1369591 6.5933533-19.0295544 8.3486443c-2.1277657.9334908-4.6179304.1485176-5.8257151-1.8364372l-7.3360839-12.056633c-1.133225-1.8624229-.8557692-4.2567425.6733413-5.8106499l.0000067-.0000076c1.854415-1.8844873 4.8895112-1.8958074 6.7579327-.0252077z" fill="#f1f7ff"/></g></g><g><g><g><g><g><path d="m51.2589073 42.884037v11.8453636c0 .7769814.6312103 1.4081917 1.4081879 1.4081917.7769814 0 1.4081917-.6312103 1.4081917-1.4081917v-11.8453636zm2.3193703 11.8453636c0 .5019836-.4091568.9111824-.9111824.9111824-.5020218 0-.9111824-.4091988-.9111824-.9111824v-11.3483581h1.8223648z" fill="#c7dafa"/></g></g><g><g><path d="m51.7559128 47.9300499v6.7993507c0 .5025101.4086723.9111824.9111824.9111824s.9111824-.4086723.9111824-.9111824v-6.7993507z" fill="#79affe"/></g></g><g><g><path d="m54.5896835 43.3810425h-3.8451767c-.1238289 0-.2242126-.1003799-.2242126-.2242088v-.3108978c0-.1238289.1003838-.2242088.2242126-.2242088h3.8451767c.1238289 0 .2242126.1003799.2242126.2242088v.3108978c.0000001.1238288-.1003837.2242088-.2242126.2242088z" fill="#edf5fc"/></g></g></g><g><g><g><path d="m55.7893944 42.884037v11.8453636c0 .7769814.6312103 1.4081917 1.4081879 1.4081917.7769814 0 1.4081917-.6312103 1.4081917-1.4081917v-11.8453636zm2.3193702 11.8453636c0 .5019836-.4091568.9111824-.9111824.9111824-.5020218 0-.9111824-.4091988-.9111824-.9111824v-11.3483581h1.8223648z" fill="#c7dafa"/></g></g><g><g><path d="m56.2863998 47.9300499v6.7993507c0 .5025101.4086761.9111824.9111824.9111824.5025101 0 .9111824-.4086723.9111824-.9111824v-6.7993507z" fill="#65f0ac"/></g></g><g><g><path d="m59.1201744 43.3810425h-3.8451805c-.1238289 0-.2242088-.1003799-.2242088-.2242088v-.3108978c0-.1238289.1003799-.2242088.2242088-.2242088h3.8451767c.1238289 0 .2242126.1003799.2242126.2242088v.3108978c0 .1238288-.1003837.2242088-.2242088.2242088z" fill="#edf5fc"/></g></g></g><g><g><g><path d="m60.3198814 42.884037v11.8453636c0 .7769814.6312103 1.4081917 1.4081879 1.4081917.7769814 0 1.4081917-.6312103 1.4081917-1.4081917v-11.8453636zm2.3193703 11.8453636c0 .5019836-.4091568.9111824-.9111824.9111824-.5020218 0-.9111786-.4091988-.9111786-.9111824v-11.3483581h1.822361z" fill="#c7dafa"/></g></g><g><g><path d="m60.8168907 47.9300499v6.7993507c0 .5025101.4086723.9111824.9111786.9111824.5025101 0 .9111824-.4086723.9111824-.9111824v-6.7993507z" fill="#fcba97"/></g></g><g><g><path d="m63.6506615 43.3810425h-3.8451805c-.1238289 0-.2242088-.1003799-.2242088-.2242088v-.3108978c0-.1238289.1003799-.2242088.2242088-.2242088h3.8451805c.1238251 0 .2242088.1003799.2242088.2242088v.3108978c0 .1238288-.1003838.2242088-.2242088.2242088z" fill="#edf5fc"/></g></g></g></g><g><g><path d="m47.507 59.137h19.382v1.152h-19.382z" fill="#daeaf9"/></g></g><g><g><path d="m47.507 57.931h19.382v1.206h-19.382z" fill="#edf5fc"/></g></g><g><g><path d="m47.507 46.15h19.382v1.206h-19.382z" fill="#edf5fc"/></g></g><g><g><g><path d="m64.054 47.356h1.327v11.781h-1.327z" fill="#edf5fc"/></g></g><g><g><path d="m49.015 47.356h1.327v11.781h-1.327z" fill="#edf5fc"/></g></g></g></g><g><g opacity=".7"><g><path d="m42.7836533 45.09552v5.2953873c-.4761772-.1503754-.9837494-.2318344-1.5100632-.2318344-.5263557 0-1.0338898.081459-1.5101051.2318344v-5.2953873z" fill="#5150ac"/></g></g><g opacity=".7"><g><path d="m46.2549896 55.1404724c0 2.7507401-2.2306595 4.9813995-4.9813995 4.9813995-2.7507439 0-4.9814034-2.2306595-4.9814034-4.9813995 0-2.2243881 1.4599686-4.1104317 3.4712982-4.7495651.4762154-.1503754.9837494-.2318344 1.5101051-.2318344.5263138 0 1.033886.081459 1.5100632.2318344 2.0113679.6391334 3.4713364 2.525177 3.4713364 4.7495651z" fill="#5150ac"/></g></g><g><g><path d="m45.2630653 55.1348763c-.337635-.1946754-.7616692-.19067-1.1335602-.0740776-.3718872.1165886-.7024307.3348427-1.0231056.5563431-.3206787.2215004-.6410675.4511604-1.0031509.595356-.6037636.2404404-1.3062401.2205162-1.8954086-.0537605-.036377.2476044-.0728378.4982109-.0480003.7472382.0248375.2490234.117733.5003052.3032913.6682281.2311668.209198.562397.2573471.8729668.2846794.8439255.0742683 1.7131996.0612144 2.5124817-.2196465.4469795-.1570625.866806-.4047508 1.2069283-.7359924.1741714-.1696281.3260002-.3612404.4477043-.5718346.0962067-.1664696.2482605-.3558044.223114-.5574341-.0329667-.2643318-.2393495-.5099907-.4632608-.6390991z" fill="#f99072"/></g></g><g><g><path d="m45.7290916 55.8355255c-.3356972 2.1583748-2.2070503 3.8148117-4.4579086 3.8148117-2.4862213 0-4.5081482-2.0234795-4.5081482-4.5096817 0-.5364647.0941277-1.0509453.268219-1.5278015.1631393-.0533447.3435898-.0533447.5160713-.0407867 1.1403656.0768623 2.2446556.5803719 3.0493202 1.3897667.3105774.3121452.5788002.6682167.9144974.9521217.3372307.2823524.7685928.4925575 1.206234.4392128.3356972-.0407867.6305733-.2305794.9427605-.3607826.6069832-.2509689 1.2893333-.2760735 1.9387512-.1788025.0439606.0062599.0862389.0141105.1302032.0219421z" fill="#fcba97"/></g></g><g opacity=".7"><g><path d="m43.5507469 45.0956535h-4.5575943c-.1058884 0-.1917229-.0858345-.1917229-.1917229v-.7733841c0-.1058846.0858345-.1917229.1917229-.1917229h4.5575943c.1058884 0 .1917267.0858383.1917267.1917229v.7733841c0 .1058884-.0858383.1917229-.1917267.1917229z" fill="#363383"/></g></g><g><g><path d="m42.3566322 54.1555786c-.0815697.153717-.2745018.2117729-.4282188.1286354-.1537209-.0815697-.2117767-.2745018-.1285973-.4282227.0814934-.1537361.2745018-.2117729.4281425-.1286354.1537972.0815697.2117768.2745057.1286736.4282227z" fill="#fcba97"/></g></g><g><g><path d="m43.5351982 52.6948318c-.0815697.1537209-.2745018.2117767-.4282188.1286354-.1537209-.0815697-.2117767-.2745018-.1285973-.4282188.0814934-.1537399.2745018-.2117767.4281425-.1286354.1537972.0815697.2117768.2745018.1286736.4282188z" fill="#fcba97"/></g></g><g><g><path d="m41.9210701 52.1286774c-.1008682.1900864-.339447.2618752-.5295334.1590691-.1900864-.1008682-.2618752-.339447-.1590195-.5295334.1007729-.1901093.339447-.261879.529438-.1590691.1901818.1008682.2618752.339447.1591149.5295334z" fill="#fcba97"/></g></g><g><g><path d="m40.9025993 49.6585121c-.1008682.1900864-.339447.2618752-.5295334.1590691-.1900864-.1008682-.261879-.339447-.1590195-.5295334.1007729-.1901093.339447-.261879.529438-.1590691.190178.1008683.2618752.3394471.1591149.5295334z" fill="#fcba97"/></g></g></g><g><g><g><path d="m50.9859543 21.6230755v9.8930092c0 1.1193142-.9050484 2.0243626-2.0244331 2.0243626-1.1074677 0-2.012516-.9050484-2.012516-2.0243626v-9.8930092z" fill="#f1f7ff"/></g></g><g><g><path d="m47.3022118 23.525341v7.9903202c0 .9219494.7446938 1.6712513 1.6597404 1.6712513.9207993 0 1.6701012-.7493019 1.6701012-1.6712513v-7.9903202z" fill="#fcba97"/></g></g><g><g><path d="m51.509922 20.801178v1.3457947c0 .1904297-.1548119.3331776-.3453865.3331776h-4.3941841c-.1905022 0-.345314-.1427479-.345314-.3331776v-1.3457947c0-.1904278.1548119-.3334675.345314-.3334675h4.3941841c.1905747 0 .3453865.1430397.3453865.3334675z" fill="#48609d"/></g></g></g><g><g><path d="m43.8310013 25.3074055 1.961731-1.5636978c.6141548-.4895458 1.5150108-.3530941 1.956646.2963676v.0000019c.3991089.5869198.2752342 1.3827038-.2833862 1.8205452l-.4541168.3559341c-.0418777.0328236-.085659.063139-.131115.0907917l-2.1402855 1.3019505z" fill="#f9c4c0"/></g></g><g><g><path d="m40.9486961 34.0916214.5286751 3.6853447c.0914955.6377983-.3461151 1.2308693-.9825249 1.3315659l-.9600677.1519089-2.1341896-6.5961723s.3253479-.6609344.6326218-1.250618c.2401924-.4609413.8750191-.5232487 1.1996727-.1173439.0043602.0054474.0086937.01087.0130005.0162621.1767311.2211437.2068062.5244961.0774956.7763252l-.2954445.5753746 4.2683907-1.749609c.5111809-.2095318 1.0864334.10005 1.1931343.6421051v.0000019c.07547.3833809-.1117935.7704468-.4592323.9492226z" fill="#f9c4c0"/></g></g></g></svg>