<svg height="512" viewBox="0 0 152 152" width="512" xmlns="http://www.w3.org/2000/svg" xmlns:xlink="http://www.w3.org/1999/xlink"><linearGradient id="linear-gradient" gradientUnits="userSpaceOnUse" x1="22.26" x2="129.74" y1="22.26" y2="129.74"><stop offset="0" stop-color="#00bde2"/><stop offset="1" stop-color="#001761"/></linearGradient><g id="Layer_2" data-name="Layer 2"><g id="_09.user_lock" data-name="09.user_lock"><rect id="background" fill="url(#linear-gradient)" height="152" rx="76" width="152"/><g id="icon" fill="#fff"><path d="m72.45 84.39v18.8a7.72 7.72 0 0 0 1.31 4.32h-29.76a6 6 0 0 1 -6-6 24.89 24.89 0 0 1 24.89-24.9h4.16a25.07 25.07 0 0 1 8.57 1.51 7.79 7.79 0 0 0 -3.17 6.27z"/><circle cx="64.97" cy="57.83" r="13.48"/><path d="m109.54 79.93h-1.84v-7.72a12.82 12.82 0 1 0 -25.63 0v7.72h-1.84a4.46 4.46 0 0 0 -4.46 4.46v18.8a4.46 4.46 0 0 0 4.46 4.46h29.31a4.46 4.46 0 0 0 4.46-4.46v-18.8a4.46 4.46 0 0 0 -4.46-4.46zm-21.13-7.72a6.48 6.48 0 1 1 13 0v7.72h-13z"/></g></g></g></svg>