<svg xmlns="http://www.w3.org/2000/svg" version="1.1" xmlns:xlink="http://www.w3.org/1999/xlink" width="512" height="512" x="0" y="0" viewBox="0 0 512 512" style="enable-background:new 0 0 512 512" xml:space="preserve" class=""><g><rect width="336" height="464" x="136" y="24" fill="#31cad0" rx="10" opacity="1" data-original="#31cad0"></rect><path fill="#d6f4f6" d="M168 64h272v384H168z" opacity="1" data-original="#d6f4f6" class=""></path><circle cx="304" cy="168" r="48" fill="#31cad0" opacity="1" data-original="#31cad0"></circle><path fill="#fdbf44" d="M216 24h176v54a10 10 0 0 1-10 10H226a10 10 0 0 1-10-10V24z" opacity="1" data-original="#fdbf44"></path><rect width="176" height="64" x="40" y="200" fill="#fdbf44" rx="10" opacity="1" data-original="#fdbf44"></rect><path fill="#5764c8" d="M216 488H50a10 10 0 0 1-10-10V312l16-16v-32h144v32l16 16z" opacity="1" data-original="#e64b30" class=""></path><path fill="#fffcfc" d="M176 376h-32v-32h-32v32H80v32h32v32h32v-32h32z" opacity="1" data-original="#fffcfc"></path><circle cx="248" cy="440" r="48" fill="#fdbf44" opacity="1" data-original="#fdbf44"></circle><path d="M464 478a2 2 0 0 1-2 2H304v16h158a18.021 18.021 0 0 0 18-18V136.163h-16z" fill="#000000" opacity="1" data-original="#000000" class=""></path><path d="M462 16H146a18.021 18.021 0 0 0-18 18v142h16V34a2 2 0 0 1 2-2h62v24h-40a8 8 0 0 0-8 8v112h16V72h32v6a18.021 18.021 0 0 0 18 18h156a18.021 18.021 0 0 0 18-18v-6h32v368H320v16h120a8 8 0 0 0 8-8V64a8 8 0 0 0-8-8h-40V32h62a2 2 0 0 1 2 2v86h16V34a18.021 18.021 0 0 0-18-18zm-78 62a2 2 0 0 1-2 2H226a2 2 0 0 1-2-2V32h160z" fill="#000000" opacity="1" data-original="#000000" class=""></path><path d="M360 168a56 56 0 1 0-56 56 56.064 56.064 0 0 0 56-56zm-96 0a40 40 0 1 1 40 40 40.045 40.045 0 0 1-40-40z" fill="#000000" opacity="1" data-original="#000000" class=""></path><path d="M312 192v-16h16v-16h-16v-16h-16v16h-16v16h16v16zM240 256h120v16H240zM376 256h40v16h-40zM256 336h104v16H256zM376 336h40v16h-40zM240 296h48v16h-48zM304 296h112v16H304zM240 48h16v16h-16zM352 48h16v16h-16zM272 48h64v16h-64zM304 376h112v16H304zM144 336h-32a8 8 0 0 0-8 8v24H80a8 8 0 0 0-8 8v32a8 8 0 0 0 8 8h24v24a8 8 0 0 0 8 8h32a8 8 0 0 0 8-8v-24h24a8 8 0 0 0 8-8v-32a8 8 0 0 0-8-8h-24v-24a8 8 0 0 0-8-8zm24 48v16h-24a8 8 0 0 0-8 8v24h-16v-24a8 8 0 0 0-8-8H88v-16h24a8 8 0 0 0 8-8v-24h16v24a8 8 0 0 0 8 8z" fill="#000000" opacity="1" data-original="#000000" class=""></path><path d="M248 384a55.661 55.661 0 0 0-24 5.408V312a8 8 0 0 0-2.343-5.657L208 292.687v-20.8A18.025 18.025 0 0 0 224 254v-44a18.021 18.021 0 0 0-18-18H50a18.021 18.021 0 0 0-18 18v44a18.025 18.025 0 0 0 16 17.889v20.8l-13.657 13.654A8 8 0 0 0 32 312v40h16v-36.687L59.313 304H168v-16H64v-16h128v24a8 8 0 0 0 2.343 5.657L208 315.313v85.533a55.91 55.91 0 0 0 .846 79.154H50a2 2 0 0 1-2-2V368H32v110a18.021 18.021 0 0 0 18 18h198a56 56 0 0 0 0-112zm-42-128H50a2 2 0 0 1-2-2v-44a2 2 0 0 1 2-2h156a2 2 0 0 1 2 2v44a2 2 0 0 1-2 2zm42 224a39.983 39.983 0 0 1-26.515-69.925l39.184 67.869A39.85 39.85 0 0 1 248 480zm26.515-10.075-39.184-67.869a39.989 39.989 0 0 1 39.184 67.869z" fill="#000000" opacity="1" data-original="#000000" class=""></path></g></svg>