<svg xmlns="http://www.w3.org/2000/svg" version="1.1" xmlns:xlink="http://www.w3.org/1999/xlink" width="512" height="512" x="0" y="0" viewBox="0 0 512 512" style="enable-background:new 0 0 512 512" xml:space="preserve" class=""><g><path d="M368.814 0H143.186v199.593H82.441L256 303.729l173.559-104.136h-60.745z" style="" fill="#76bdf6" data-original="#76bdf6"></path><path d="M472.949 112.814H368.814v34.712H472.95v225.627H39.051V147.525h104.136v-34.712H39.051c-19.17 0-34.712 15.542-34.712 34.712v242.983c0 19.17 15.542 34.712 34.712 34.712h433.898c19.17 0 34.712-15.542 34.712-34.712V147.525c0-19.169-15.542-34.711-34.712-34.711z" style="" fill="#3689c9" data-original="#3689c9"></path><path d="M39.051 373.153h433.898V147.525H368.814v52.068h60.746L256 303.729 82.441 199.593h60.746v-52.068H39.051v225.628z" style="" fill="#ffddba" data-original="#ffddba" class=""></path><path d="M4.339 477.288C4.339 506.047 27.648 512 56.407 512h399.186c28.759 0 52.068-5.953 52.068-34.712H4.339zM169.22 477.288h173.56l-26.034-52.068H195.254z" style="" fill="#3689c9" data-original="#3689c9"></path><path d="m308.068 86.78-43.39-26.034C256 86.78 203.932 86.78 203.932 86.78c0 28.759 33.662 52.068 52.068 52.068s52.068-23.31 52.068-52.068z" style="" fill="#ffddba" data-original="#ffddba" class=""></path><path d="m264.678 60.746 43.39 26.034c0-28.759-8.678-60.746-52.068-60.746s-52.068 31.987-52.068 60.746c0 0 52.068 0 60.746-26.034z" style="" fill="#bbcbca" data-original="#854f09" class="" opacity="1"></path><path d="M186.576 208.271v-34.712c0-19.17 15.542-34.712 34.712-34.712h69.424c19.17 0 34.712 15.542 34.712 34.712v34.712H186.576zM442.576 316.746h-21.695v-21.695h-8.678v21.695h-21.695v8.678h21.695v21.695h8.678v-21.695h21.695z" style="" fill="#3689c9" data-original="#3689c9"></path><path d="M316.746 425.22H195.254l-4.339 8.678H321.085zM256 303.729l-144.636-86.78H82.441L256 321.085l173.559-104.136h-28.923z" style="opacity:0.14;" fill="#000000" opacity="1" data-original="#000000"></path></g></svg>