<svg xmlns="http://www.w3.org/2000/svg" version="1.1" xmlns:xlink="http://www.w3.org/1999/xlink" width="512" height="512" x="0" y="0" viewBox="0 0 512 512" style="enable-background:new 0 0 512 512" xml:space="preserve" class=""><g><path fill="#eceaec" d="M469.227 90.84 379.871 1.48A16.517 16.517 0 0 0 373.03 0H74.323a8.258 8.258 0 0 0-8.258 8.258v495.484h396.387a8.258 8.258 0 0 0 8.258-8.258V97.68c0-2.383-.515-4.712-1.483-6.84z" opacity="1" data-original="#eceaec" class=""></path><path fill="#dbd8db" d="M74.323 462.452V0h-8.258a8.258 8.258 0 0 0-8.258 8.258v495.484A8.258 8.258 0 0 0 66.065 512h396.387a8.258 8.258 0 0 0 8.258-8.258v-8.258H107.355c-18.243 0-33.032-14.789-33.032-33.032z" opacity="1" data-original="#dbd8db"></path><path fill="#5fc1ff" d="M206.452 209.118H66.145c-9.122 0-16.516-7.395-16.516-16.516V49.548l8.178-16.516h148.645c9.122 0 16.516 7.395 16.516 16.516v148.645z" opacity="1" data-original="#ff5f7a" class=""></path><path fill="#728180" d="M156.903 305.548a8.231 8.231 0 0 1-5.839-2.419l-24.774-24.774a8.254 8.254 0 0 1 0-11.677 8.254 8.254 0 0 1 11.677 0l18.935 18.935 43.71-43.71a8.254 8.254 0 0 1 11.677 0 8.254 8.254 0 0 1 0 11.677l-49.548 49.548a8.224 8.224 0 0 1-5.838 2.42z" opacity="1" data-original="#98db7c" class=""></path><path fill="#5fc1ff" d="M355.097 264.258h-90.839c-4.565 0-8.258-3.698-8.258-8.258s3.694-8.258 8.258-8.258h90.839c4.565 0 8.258 3.698 8.258 8.258s-3.694 8.258-8.258 8.258z" opacity="1" data-original="#ff5f7a" class=""></path><path fill="#a6bab9" d="M404.645 297.29H264.258c-4.565 0-8.258-3.698-8.258-8.258s3.694-8.258 8.258-8.258h140.387c4.565 0 8.258 3.698 8.258 8.258s-3.693 8.258-8.258 8.258z" opacity="1" data-original="#615260" class=""></path><path fill="#728180" d="M156.903 388.129a8.231 8.231 0 0 1-5.839-2.419l-24.774-24.774c-3.226-3.226-3.226-8.452 0-11.677s8.452-3.226 11.677 0l18.935 18.935 43.71-43.71a8.254 8.254 0 0 1 11.677 0 8.254 8.254 0 0 1 0 11.677l-49.548 49.548a8.224 8.224 0 0 1-5.838 2.42zM355.097 346.839h-90.839c-4.565 0-8.258-3.698-8.258-8.258s3.694-8.258 8.258-8.258h90.839c4.565 0 8.258 3.698 8.258 8.258s-3.694 8.258-8.258 8.258z" opacity="1" data-original="#98db7c" class=""></path><path fill="#a6bab9" d="M404.645 379.871H264.258c-4.565 0-8.258-3.698-8.258-8.258s3.694-8.258 8.258-8.258h140.387c4.565 0 8.258 3.698 8.258 8.258s-3.693 8.258-8.258 8.258z" opacity="1" data-original="#615260" class=""></path><path fill="#728180" d="M156.903 470.71a8.231 8.231 0 0 1-5.839-2.419l-24.774-24.774c-3.226-3.226-3.226-8.452 0-11.677s8.452-3.226 11.677 0l18.935 18.935 43.71-43.71a8.254 8.254 0 0 1 11.677 0 8.254 8.254 0 0 1 0 11.677l-49.548 49.548a8.228 8.228 0 0 1-5.838 2.42z" opacity="1" data-original="#98db7c" class=""></path><path fill="#5fc1ff" d="M355.097 429.419h-90.839c-4.565 0-8.258-3.698-8.258-8.258s3.694-8.258 8.258-8.258h90.839c4.565 0 8.258 3.698 8.258 8.258s-3.694 8.258-8.258 8.258z" opacity="1" data-original="#7ad7ee" class=""></path><path fill="#a6bab9" d="M404.645 462.452H264.258c-4.565 0-8.258-3.698-8.258-8.258s3.694-8.258 8.258-8.258h140.387c4.565 0 8.258 3.698 8.258 8.258s-3.693 8.258-8.258 8.258z" opacity="1" data-original="#615260" class=""></path><path fill="#ffffff" d="M173.419 107.355h-24.774V82.581a8.258 8.258 0 0 0-8.258-8.258h-16.516a8.258 8.258 0 0 0-8.258 8.258v24.774H99.097l-9.712 15.971 32.939 10.351 11.152 31.351 15.17-8.124v-16.516h24.774a8.258 8.258 0 0 0 8.258-8.258v-16.516a8.26 8.26 0 0 0-8.259-8.259z" opacity="1" data-original="#ffffff"></path><path fill="#5fc1ff" d="M330.323 74.323h-57.807l-11.222 16.516 11.222 9.573h61.103l13.219-9.573c.001-9.122-7.394-16.516-16.515-16.516z" opacity="1" data-original="#ff5f7a" class=""></path><path fill="#5d6880" d="M355.097 148.645h-90.839c-4.565 0-8.258-3.698-8.258-8.258s3.694-8.258 8.258-8.258h90.839c4.565 0 8.258 3.698 8.258 8.258s-3.694 8.258-8.258 8.258zM355.097 214.71h-90.839c-4.565 0-8.258-3.698-8.258-8.258s3.694-8.258 8.258-8.258h90.839c4.565 0 8.258 3.698 8.258 8.258s-3.694 8.258-8.258 8.258z" opacity="1" data-original="#736572" class=""></path><path fill="#a6bab9" d="M404.645 181.677H264.258c-4.565 0-8.258-3.698-8.258-8.258s3.694-8.258 8.258-8.258h140.387c4.565 0 8.258 3.698 8.258 8.258s-3.693 8.258-8.258 8.258z" opacity="1" data-original="#615260" class=""></path><path fill="#dbd8db" d="M465.872 86.001 384.709 4.837a16.643 16.643 0 0 0-4.838-3.357v81.101a8.259 8.259 0 0 0 8.258 8.258h81.101a16.646 16.646 0 0 0-3.358-4.838z" opacity="1" data-original="#dbd8db"></path><path fill="#5fa1ff" d="M57.806 33.032c-9.121 0-16.516 7.394-16.516 16.516v148.645c0 9.122 7.395 16.516 16.516 16.516h148.645c9.121 0 16.516-7.395 16.516-16.516H82.581c-13.682 0-24.774-11.092-24.774-24.774V33.032z" opacity="1" data-original="#fb4455" class=""></path><path fill="#eceaec" d="M132.129 140.387c0-9.122-7.395-16.516-16.516-16.516-9.122 0-16.516-7.395-16.516-16.516h-8.258a8.258 8.258 0 0 0-8.258 8.258v16.516a8.258 8.258 0 0 0 8.258 8.258h24.774v24.774a8.258 8.258 0 0 0 8.258 8.258h16.516a8.258 8.258 0 0 0 8.258-8.258v-8.258c-9.121 0-16.516-7.394-16.516-16.516z" opacity="1" data-original="#eceaec" class=""></path><path fill="#5fa1ff" d="M272.516 74.323c-9.121 0-16.516 7.394-16.516 16.516 0 9.121 7.395 16.516 16.516 16.516h57.806c9.121 0 16.516-7.395 16.516-16.516h-57.806c-9.121 0-16.516-7.395-16.516-16.516z" opacity="1" data-original="#fb4455" class=""></path></g></svg>